<?xml version="1.0" encoding="UTF-8"?>
<svg id="Livello_1" xmlns="http://www.w3.org/2000/svg" version="1.1" viewBox="0 0 140 32">
  <!-- Generator: Adobe Illustrator 29.1.0, SVG Export Plug-In . SVG Version: 2.1.0 Build 142)  -->
  <defs>
    <style>
      .st0 {
        fill: #da3833;
      }
    </style>
  </defs>
  <path class="st0" d="M47.5,18.1l-3,3v-7.3c.5-.8.9-1.7.9-2.7,0-1.5-.5-2.9-1.5-3.9-2-2-5.4-2-7.4,0l-2.1,2.2-2.1-2.2c-1-1-2.3-1.5-3.7-1.5s-2.7.5-3.7,1.5c-2,2-2,5.4,0,7.4l9.5,9.5,2.8-2.8v-2.3c0-.5.4-.9.8-.9h0v-4.5c0-.3.2-.6.5-.7v-3.4c0-.2,0-.4.2-.5l1.7-1.3c.4-.3.9,0,.9.5v4.2l-1.7.4c0,0,0,.1,0,.1h1.7c.3,0,.5.4.5.7v3.8l-2.1.4c0,0,0,.2,0,.2h2.1c.2,0,.3,0,.4.1.3.2.4.4.4.8v3.9l-.5.5-3.7,3.7-4.1,4.1-13.2-13.1c-2-2-3-4.5-3-7.3s1.1-5.4,3-7.3,4.5-3,7.3-3,4.1.6,5.8,1.8c4.7-3.2,11.6-2.1,14.8,3.4.4.7.8,1.5,1,2.4,1,3.7,0,7.4-2.6,10h0Z"/>
  <g>
    <path class="st0" d="M64.3,10.8c0,2.2-1.8,4.2-4.6,4.2h-5.9V1.2h4.5c2.5,0,4.3,1.7,4.3,3.6s-.9,2.4-1.5,2.4c1.5,0,3.1,1.5,3.1,3.6ZM58.2,4.4h-.9v2.1h.9c.8,0,1.4-.4,1.4-1.1s-.6-1.1-1.4-1.1ZM60.8,10.3c0-.8-.6-1.3-1.6-1.3h-1.8v2.6h1.8c.8,0,1.6-.4,1.6-1.3Z"/>
    <path class="st0" d="M69.4,4.6v1.9h4.4v3h-4.4v2h5.3v3.4h-8.9V1.2h8.9v3.4h-5.3Z"/>
    <path class="st0" d="M85.6,13.4h-5.1l-.7,1.6h-4l6.4-13.9h1.7l6.4,13.9h-4l-.7-1.6ZM84.4,10.7l-1.4-3.3-1.4,3.3h2.8Z"/>
    <path class="st0" d="M90.2,10V1.2h3.7v8.8c0,1.2,1,1.9,2,1.9s2-.8,2-1.9V1.2h3.7v8.8c0,3.2-2.6,5.4-5.7,5.4-3.1,0-5.7-2.2-5.7-5.4Z"/>
    <path class="st0" d="M113.4,4.6h-3.3v10.3h-3.7V4.6h-3.3V1.2h10.3v3.4h0Z"/>
    <path class="st0" d="M118.2,9l-4.2-7.8h4.1l1.9,4,1.9-4h4.1l-4.2,7.8v5.9h-3.6v-5.9Z"/>
  </g>
  <path class="st0" d="M53.7,18.6h4.4c2.4,0,4.4,1.9,4.4,4.3s-2,4.2-4.4,4.2h-1.9v4.1h-2.5v-12.6ZM60,22.8c0-1-.9-1.7-1.9-1.7h-1.9v3.5h1.9c1,0,1.9-.8,1.9-1.8Z"/>
  <path class="st0" d="M70.6,31.2l-4-6v6h-2.5v-12.6h4.1c2.3,0,4.3,1.8,4.3,4.1s-1,3-2.3,3.5l3.6,5h-3.1ZM66.5,24.3h1.6c.9,0,1.6-.7,1.6-1.6s-.8-1.6-1.6-1.6h-1.6v3.2h0Z"/>
  <path class="st0" d="M74.8,18.6h2.5v12.6h-2.5v-12.6Z"/>
  <path class="st0" d="M79,24.9c0-3.6,3-6.6,6.5-6.6,1.6,0,3.1.7,4.4,2l-1.5,2c-.9-.8-1.9-1.4-3-1.4-2,0-4,1.8-4,4s2,4,3.9,4,2.1-.6,3-1.4l1.4,2.1c-1.1,1.1-2.5,1.9-4.4,1.9-3.6,0-6.6-3-6.6-6.5Z"/>
  <path class="st0" d="M93.9,21.1v2.5h4.4v2.5h-4.4v2.6h5.1v2.5h-7.6v-12.6h7.6v2.5h-5.1Z"/>
  <path class="st0" d="M107.4,19.2c0,2-1.6,3.5-3.5,3.5s-3.5-1.6-3.5-3.5,1.5-3.5,3.5-3.5,3.5,1.6,3.5,3.5ZM106.7,19.2c0-1.5-1.3-2.8-2.8-2.8s-2.8,1.3-2.8,2.8,1.3,2.8,2.8,2.8c1.5,0,2.8-1.3,2.8-2.8ZM104.5,19.5l1,1.4h-.9l-1.1-1.7v1.7h-.7v-3.5h1.2c.7,0,1.2.5,1.2,1.1s-.3.9-.7,1ZM103.5,19h.5c.2,0,.4-.2.4-.4s-.2-.4-.4-.4h-.5v.9Z"/>
</svg>